<?xml version="1.0" encoding="utf-8"?>
<!-- Generator: Adobe Illustrator 25.4.1, SVG Export Plug-In . SVG Version: 6.00 Build 0)  -->
<svg version="1.1" id="Layer_1" xmlns="http://www.w3.org/2000/svg" xmlns:xlink="http://www.w3.org/1999/xlink" x="0px" y="0px"
	 viewBox="0 0 81.1 76.5" style="enable-background:new 0 0 81.1 76.5;" xml:space="preserve">
<style type="text/css">
	.st0{fill:#CD2027;stroke:#CD2027;stroke-width:0.5;stroke-miterlimit:10;}
	.st1{fill:#CD2027;}
	.st2{fill:#CD2027;stroke:#E8E9E9;stroke-width:0.2;stroke-miterlimit:10;}
</style>
<g>
	<path class="st1" d="M41.8,27.1c-4.4,0-7.9-3.6-7.9-7.9s3.6-7.9,7.9-7.9c4.4,0,7.9,3.6,7.9,7.9C49.7,23.5,46.1,27.1,41.8,27.1z
		 M41.8,12.7c-3.6,0-6.5,2.9-6.5,6.5s2.9,6.5,6.5,6.5s6.5-2.9,6.5-6.5S45.3,12.7,41.8,12.7z"/>
	<path class="st1" d="M48.4,69.8H35.2c-0.8,0-1.4-0.9-1.4-1.6l0-16.9c-1-1-2.5-2.7-2.5-3.7l0-15.5c0-1.6,1.4-3.5,5.4-3.5h9.8
		c3.7,0,5.8,1.8,5.8,3.5l0,15.5c0,1-1.5,2.6-2.5,3.7v16.9C49.8,68.9,49.1,69.8,48.4,69.8L48.4,69.8z M35.3,68.3h12.9
		c0,0,0.1-0.1,0.1-0.1l0-17.5l0.2-0.2c1.2-1.1,2.2-2.5,2.3-2.9l0-15.5c0-0.6-1.1-2-4.3-2h-9.8c-2.7,0-4,1-4,2v15.5
		c0.1,0.4,1.1,1.7,2.3,2.9l0.2,0.2v17.5C35.2,68.2,35.3,68.3,35.3,68.3L35.3,68.3z"/>
	<path class="st1" d="M24.8,22.1c-4.4,0-7.9-3.6-7.9-7.9c0-4.4,3.6-7.9,7.9-7.9c4.4,0,7.9,3.6,7.9,7.9
		C32.8,18.6,29.2,22.1,24.8,22.1z M24.8,7.8c-3.6,0-6.5,2.9-6.5,6.5s2.9,6.5,6.5,6.5s6.5-2.9,6.5-6.5S28.4,7.8,24.8,7.8z"/>
	<path class="st1" d="M19.8,25.1h11.4v-1.4H19.8c-4,0-5.4,1.9-5.4,3.5v15.5c0,1,1.5,2.6,2.5,3.7v16.9c0,0.7,0.7,1.6,1.4,1.6h12.9
		l0-1.4l-12.8,0c0,0-0.1-0.1-0.1-0.1V45.8l-0.2-0.2c-1.1-1.1-2.2-2.5-2.3-2.9V27.2C15.8,26.2,17,25.1,19.8,25.1L19.8,25.1z"/>
	<path class="st1" d="M50.4,14.2c0-4.4,3.6-7.9,7.9-7.9s7.9,3.6,7.9,7.9c0,4.4-3.6,7.9-7.9,7.9C53.9,22.1,50.4,18.6,50.4,14.2
		L50.4,14.2z M51.8,14.2c0,3.6,2.9,6.5,6.5,6.5s6.5-2.9,6.5-6.5c0-3.6-2.9-6.5-6.5-6.5S51.8,10.7,51.8,14.2z"/>
	<path class="st1" d="M63.3,25.1H51.9v-1.4h11.4c4,0,5.4,1.9,5.4,3.5v15.5c0,1-1.5,2.6-2.5,3.7v16.9c0,0.7-0.7,1.6-1.4,1.6l-12.9,0
		l0-1.4h12.8c0,0,0.1-0.1,0.1-0.1V45.8l0.2-0.2c1.1-1.1,2.2-2.5,2.3-2.9V27.2C67.3,26.2,66.1,25.1,63.3,25.1L63.3,25.1z"/>
</g>
</svg>
