<?xml version="1.0" encoding="utf-8"?>
<!-- Generator: Adobe Illustrator 25.4.1, SVG Export Plug-In . SVG Version: 6.00 Build 0)  -->
<svg version="1.1" id="Layer_1" xmlns="http://www.w3.org/2000/svg" xmlns:xlink="http://www.w3.org/1999/xlink" x="0px" y="0px"
	 viewBox="0 0 81.1 76.5" style="enable-background:new 0 0 81.1 76.5;" xml:space="preserve">
<style type="text/css">
	.st0{fill:#CD2027;stroke:#CD2027;stroke-width:0.5;stroke-miterlimit:10;}
	.st1{fill:#CD2027;}
	.st2{fill:#CD2027;stroke:#E8E9E9;stroke-width:0.2;stroke-miterlimit:10;}
</style>
<g>
	<path class="st2" d="M57.3,37.7c-0.5,0-0.9-0.4-0.9-0.9v-1.5c0-0.5,0.4-0.9,0.9-0.9c0.5,0,0.9,0.4,0.9,0.9v1.5
		C58.2,37.3,57.8,37.7,57.3,37.7z"/>
	<path class="st2" d="M53,37.7c-0.5,0-0.9-0.4-0.9-0.9v-1.5c0-0.5,0.4-0.9,0.9-0.9c0.5,0,0.9,0.4,0.9,0.9v1.5
		C53.9,37.3,53.5,37.7,53,37.7z"/>
	<path class="st2" d="M48.7,37.7c-0.5,0-0.9-0.4-0.9-0.9v-1.5c0-0.5,0.4-0.9,0.9-0.9c0.5,0,0.9,0.4,0.9,0.9v1.5
		C49.6,37.3,49.2,37.7,48.7,37.7z"/>
	<path class="st2" d="M57.3,31c-0.5,0-0.9-0.4-0.9-0.9v-1.5c0-0.5,0.4-0.9,0.9-0.9c0.5,0,0.9,0.4,0.9,0.9v1.5
		C58.2,30.6,57.8,31,57.3,31z"/>
	<path class="st2" d="M53,31c-0.5,0-0.9-0.4-0.9-0.9v-1.5c0-0.5,0.4-0.9,0.9-0.9c0.5,0,0.9,0.4,0.9,0.9v1.5C53.9,30.6,53.5,31,53,31
		z"/>
	<path class="st2" d="M48.7,31c-0.5,0-0.9-0.4-0.9-0.9v-1.5c0-0.5,0.4-0.9,0.9-0.9c0.5,0,0.9,0.4,0.9,0.9v1.5
		C49.6,30.6,49.2,31,48.7,31z"/>
	<path class="st2" d="M57.3,43.9c-0.5,0-0.9-0.4-0.9-0.9v-1.5c0-0.5,0.4-0.9,0.9-0.9c0.5,0,0.9,0.4,0.9,0.9V43
		C58.2,43.5,57.8,43.9,57.3,43.9z"/>
	<path class="st2" d="M53,43.9c-0.5,0-0.9-0.4-0.9-0.9v-1.5c0-0.5,0.4-0.9,0.9-0.9c0.5,0,0.9,0.4,0.9,0.9V43
		C53.9,43.5,53.5,43.9,53,43.9z"/>
	<path class="st2" d="M48.7,43.9c-0.5,0-0.9-0.4-0.9-0.9v-1.5c0-0.5,0.4-0.9,0.9-0.9c0.5,0,0.9,0.4,0.9,0.9V43
		C49.6,43.5,49.2,43.9,48.7,43.9z"/>
	<path class="st2" d="M57.3,50.1c-0.5,0-0.9-0.4-0.9-0.9v-1.5c0-0.5,0.4-0.9,0.9-0.9c0.5,0,0.9,0.4,0.9,0.9v1.5
		C58.2,49.7,57.8,50.1,57.3,50.1z"/>
	<path class="st2" d="M53,50.1c-0.5,0-0.9-0.4-0.9-0.9v-1.5c0-0.5,0.4-0.9,0.9-0.9c0.5,0,0.9,0.4,0.9,0.9v1.5
		C53.9,49.7,53.5,50.1,53,50.1z"/>
	<path class="st2" d="M48.7,50.1c-0.5,0-0.9-0.4-0.9-0.9v-1.5c0-0.5,0.4-0.9,0.9-0.9c0.5,0,0.9,0.4,0.9,0.9v1.5
		C49.6,49.7,49.2,50.1,48.7,50.1z"/>
	<path class="st2" d="M57.3,56.4c-0.5,0-0.9-0.4-0.9-0.9V54c0-0.5,0.4-0.9,0.9-0.9c0.5,0,0.9,0.4,0.9,0.9v1.5
		C58.2,56,57.8,56.4,57.3,56.4z"/>
	<path class="st2" d="M53,56.4c-0.5,0-0.9-0.4-0.9-0.9V54c0-0.5,0.4-0.9,0.9-0.9c0.5,0,0.9,0.4,0.9,0.9v1.5
		C53.9,56,53.5,56.4,53,56.4z"/>
	<path class="st2" d="M48.7,56.4c-0.5,0-0.9-0.4-0.9-0.9V54c0-0.5,0.4-0.9,0.9-0.9c0.5,0,0.9,0.4,0.9,0.9v1.5
		C49.6,56,49.2,56.4,48.7,56.4z"/>
	<path class="st2" d="M57.3,62.6c-0.5,0-0.9-0.4-0.9-0.9l0-1.5c0-0.5,0.4-0.9,0.9-0.9c0.5,0,0.9,0.4,0.9,0.9v1.5
		C58.2,62.2,57.8,62.6,57.3,62.6z"/>
	<path class="st2" d="M53,62.6c-0.5,0-0.9-0.4-0.9-0.9v-1.5c0-0.5,0.4-0.9,0.9-0.9c0.5,0,0.9,0.4,0.9,0.9v1.5
		C53.9,62.2,53.5,62.6,53,62.6z"/>
	<path class="st2" d="M48.7,62.6c-0.5,0-0.9-0.4-0.9-0.9v-1.5c0-0.5,0.4-0.9,0.9-0.9c0.5,0,0.9,0.4,0.9,0.9v1.5
		C49.6,62.2,49.2,62.6,48.7,62.6z"/>
	<path class="st2" d="M31.5,37.7c-0.5,0-0.9-0.4-0.9-0.9v-1.5c0-0.5,0.4-0.9,0.9-0.9c0.5,0,0.9,0.4,0.9,0.9v1.5
		C32.4,37.3,32,37.7,31.5,37.7z"/>
	<path class="st2" d="M27.2,37.7c-0.5,0-0.9-0.4-0.9-0.9v-1.5c0-0.5,0.4-0.9,0.9-0.9c0.5,0,0.9,0.4,0.9,0.9v1.5
		C28.1,37.3,27.7,37.7,27.2,37.7z"/>
	<path class="st2" d="M23,37.7c-0.5,0-0.9-0.4-0.9-0.9v-1.5c0-0.5,0.4-0.9,0.9-0.9c0.5,0,0.9,0.4,0.9,0.9v1.5
		C23.9,37.3,23.5,37.7,23,37.7z"/>
	<path class="st2" d="M31.5,43.9c-0.5,0-0.9-0.4-0.9-0.9v-1.5c0-0.5,0.4-0.9,0.9-0.9c0.5,0,0.9,0.4,0.9,0.9V43
		C32.4,43.5,32,43.9,31.5,43.9z"/>
	<path class="st2" d="M27.2,43.9c-0.5,0-0.9-0.4-0.9-0.9v-1.5c0-0.5,0.4-0.9,0.9-0.9c0.5,0,0.9,0.4,0.9,0.9V43
		C28.1,43.5,27.7,43.9,27.2,43.9z"/>
	<path class="st2" d="M23,43.9c-0.5,0-0.9-0.4-0.9-0.9v-1.5c0-0.5,0.4-0.9,0.9-0.9c0.5,0,0.9,0.4,0.9,0.9V43
		C23.9,43.5,23.5,43.9,23,43.9z"/>
	<path class="st2" d="M31.5,50.1c-0.5,0-0.9-0.4-0.9-0.9v-1.5c0-0.5,0.4-0.9,0.9-0.9c0.5,0,0.9,0.4,0.9,0.9v1.5
		C32.4,49.7,32,50.1,31.5,50.1z"/>
	<path class="st2" d="M27.2,50.1c-0.5,0-0.9-0.4-0.9-0.9v-1.5c0-0.5,0.4-0.9,0.9-0.9c0.5,0,0.9,0.4,0.9,0.9v1.5
		C28.1,49.7,27.7,50.1,27.2,50.1z"/>
	<path class="st2" d="M23,50.1c-0.5,0-0.9-0.4-0.9-0.9v-1.5c0-0.5,0.4-0.9,0.9-0.9c0.5,0,0.9,0.4,0.9,0.9v1.5
		C23.9,49.7,23.5,50.1,23,50.1z"/>
	<path class="st2" d="M31.5,56.4c-0.5,0-0.9-0.4-0.9-0.9V54c0-0.5,0.4-0.9,0.9-0.9c0.5,0,0.9,0.4,0.9,0.9v1.5
		C32.4,56,32,56.4,31.5,56.4z"/>
	<path class="st2" d="M27.2,56.4c-0.5,0-0.9-0.4-0.9-0.9V54c0-0.5,0.4-0.9,0.9-0.9c0.5,0,0.9,0.4,0.9,0.9v1.5
		C28.1,56,27.7,56.4,27.2,56.4z"/>
	<path class="st2" d="M23,56.4c-0.5,0-0.9-0.4-0.9-0.9V54c0-0.5,0.4-0.9,0.9-0.9c0.5,0,0.9,0.4,0.9,0.9v1.5
		C23.9,56,23.5,56.4,23,56.4z"/>
	<path class="st2" d="M31.5,62.6c-0.5,0-0.9-0.4-0.9-0.9v-1.5c0-0.5,0.4-0.9,0.9-0.9c0.5,0,0.9,0.4,0.9,0.9v1.5
		C32.4,62.2,32,62.6,31.5,62.6z"/>
	<path class="st2" d="M27.2,62.6c-0.5,0-0.9-0.4-0.9-0.9l0-1.5c0-0.5,0.4-0.9,0.9-0.9c0.5,0,0.9,0.4,0.9,0.9v1.5
		C28.1,62.2,27.7,62.6,27.2,62.6z"/>
	<path class="st2" d="M23,62.6c-0.5,0-0.9-0.4-0.9-0.9l0-1.5c0-0.5,0.4-0.9,0.9-0.9c0.5,0,0.9,0.4,0.9,0.9v1.5
		C23.9,62.2,23.5,62.6,23,62.6z"/>
	<path class="st2" d="M12.3,69.1c0,0.5,0.4,0.9,0.9,0.9h54.6c0.5,0,0.9-0.4,0.9-0.9c0-0.5-0.4-0.9-0.9-0.9h-4.4l0-45.4
		c0-0.3-0.1-0.5-0.3-0.7L44,6.7c-0.3-0.2-0.6-0.3-0.9-0.1c-0.3,0.1-0.5,0.5-0.5,0.8v60.8h-4.8V22.8c0-0.3-0.2-0.6-0.4-0.8
		c-0.3-0.2-0.6-0.2-0.9-0.1l-19.1,8.7c-0.3,0.1-0.5,0.5-0.5,0.8v36.8h-3.5C12.7,68.2,12.3,68.6,12.3,69.1L12.3,69.1z M44.3,9.3
		l17.3,13.9v45H44.3V9.3z M18.6,32l17.3-7.9v44.1H18.6V32z"/>
</g>
</svg>
