<?xml version="1.0" encoding="utf-8"?>
<!-- Generator: Adobe Illustrator 24.1.0, SVG Export Plug-In . SVG Version: 6.00 Build 0)  -->
<svg version="1.1" id="Layer_1" xmlns="http://www.w3.org/2000/svg" xmlns:xlink="http://www.w3.org/1999/xlink" x="0px" y="0px"
	 viewBox="0 0 129.5 113.4" style="enable-background:new 0 0 129.5 113.4;" xml:space="preserve">
<style type="text/css">
	.st0{fill:#D71920;}
</style>
<g>
	<g>
		<path class="st0" d="M95,101.8h-0.7H25V15.2l15,15c0.6,0.6,1.5,0.6,2.1,0s0.6-1.5,0-2.1L24.6,10.6c-0.6-0.6-1.5-0.6-2.1,0
			L5.1,28.1c-0.6,0.6-0.6,1.5,0,2.1s1.5,0.6,2.1,0l0,0l15-15v88.1c0,0.7,0.5,1.3,1.2,1.4l0,0h70.9C95.6,104.7,96.4,103.1,95,101.8z"
			/>
		<path class="st0" d="M94.3,105.2H23.4c-1-0.1-1.7-0.9-1.7-1.9V16.4L7.6,30.6c-0.8,0.8-2,0.8-2.8,0c-0.4-0.4-0.6-0.9-0.6-1.4
			s0.2-1,0.6-1.4l17.4-17.5c0.8-0.8,2-0.8,2.8,0l17.5,17.5c0.4,0.4,0.6,0.9,0.6,1.4s-0.2,1-0.6,1.4c-0.8,0.8-2,0.8-2.8,0L25.5,16.4
			v84.9h69.7l0.1,0.1c0.8,0.8,1.1,1.7,0.8,2.6C95.8,104.7,95.1,105.2,94.3,105.2z M22.7,14v89.3c0,0.5,0.3,0.8,0.8,0.9l70.8,0
			c0.4,0,0.7-0.2,0.9-0.6c0.2-0.4,0-0.9-0.4-1.3H24.5V14l15.9,15.9c0.4,0.4,1,0.4,1.4,0c0.2-0.2,0.3-0.4,0.3-0.7s-0.1-0.5-0.3-0.7
			L24.2,11c-0.4-0.4-1-0.4-1.4,0L5.5,28.5c-0.2,0.2-0.3,0.4-0.3,0.7s0.1,0.5,0.3,0.7c0.4,0.4,1,0.4,1.4,0L22.7,14z"/>
	</g>
	<g>
		<path class="st0" d="M121.3,84.8c-0.6-0.6-1.5-0.6-2.1,0l0,0l-15,15V11.7c0-0.7-0.5-1.3-1.2-1.4l0,0H32.1c-1.3,0-2.2,1.6-0.7,2.9
			h0.7h69.2v86.6l-15-15c-0.6-0.6-1.5-0.6-2.1,0s-0.6,1.5,0,2.1l17.4,17.4c0.6,0.6,1.5,0.6,2.1,0l17.4-17.4
			C121.9,86.3,121.9,85.3,121.3,84.8z"/>
		<path class="st0" d="M102.6,105.3c-0.5,0-1-0.2-1.4-0.6L83.8,87.3c-0.4-0.4-0.6-0.9-0.6-1.4s0.2-1,0.6-1.4c0.8-0.8,2-0.8,2.8,0
			l14.1,14.1V13.7H31.2l-0.1-0.1c-0.8-0.7-1.1-1.7-0.8-2.5c0.3-0.8,1-1.3,1.9-1.3H103c1,0.1,1.7,0.9,1.7,1.9v86.9l14.1-14.1
			c0.8-0.8,2-0.8,2.8,0c0.4,0.3,0.6,0.8,0.6,1.3c0,0.6-0.3,1.1-0.8,1.5l-17.3,17.4C103.7,105.1,103.2,105.3,102.6,105.3z M85.2,84.9
			c-0.2,0-0.5,0.1-0.7,0.3c-0.2,0.2-0.3,0.4-0.3,0.7s0.1,0.5,0.3,0.7l17.4,17.4c0.4,0.4,1,0.4,1.4,0l17.4-17.4
			c0.3-0.2,0.5-0.5,0.5-0.8c0-0.2-0.1-0.4-0.2-0.6l0,0c-0.4-0.4-1-0.4-1.4,0L103.7,101V11.7c0-0.5-0.3-0.8-0.8-0.9l-70.8,0
			c-0.4,0-0.8,0.2-0.9,0.6c-0.2,0.4,0,0.9,0.4,1.3h70.2V101L85.9,85.2C85.7,85,85.5,84.9,85.2,84.9z"/>
	</g>
</g>
</svg>
