<?xml version="1.0" encoding="utf-8"?>
<!-- Generator: Adobe Illustrator 24.1.0, SVG Export Plug-In . SVG Version: 6.00 Build 0)  -->
<svg version="1.1" id="Layer_1" xmlns="http://www.w3.org/2000/svg" xmlns:xlink="http://www.w3.org/1999/xlink" x="0px" y="0px"
	 viewBox="0 0 113.4 113.4" style="enable-background:new 0 0 113.4 113.4;" xml:space="preserve">
<style type="text/css">
	.st0{fill:#D71920;}
</style>
<path class="st0" d="M56.7,10.2c-26.6,0-48.2,21.6-48.2,48.2s21.6,48.2,48.2,48.2s48.2-21.6,48.2-48.2S83.3,10.2,56.7,10.2z
	 M56.7,102.6c-24.4,0-44.2-19.8-44.2-44.2s19.8-44.2,44.2-44.2s44.2,19.8,44.2,44.2S81.1,102.6,56.7,102.6z"/>
<rect x="54.7" y="23.3" class="st0" width="4" height="6"/>
<rect x="85.8" y="56.4" class="st0" width="6" height="4"/>
<rect x="54.7" y="87.6" class="st0" width="4" height="6"/>
<rect x="21.5" y="56.4" class="st0" width="6" height="4"/>
<path class="st0" d="M73.3,38.9L56.7,55.6L46.1,45c-0.8-0.8-2.1-0.8-2.9,0c-0.8,0.8-0.8,2.1,0,2.9l10.6,10.6L51.2,61
	c-0.8,0.8-0.8,2.1,0,2.8l0,0c0.8,0.8,2.1,0.8,2.8,0l0,0l2.6-2.6l2.6,2.6c0.8,0.8,2.1,0.8,2.8,0l0,0c0.8-0.8,0.8-2.1,0-2.8l0,0
	l-2.6-2.6l16.7-16.7c0.8-0.8,0.8-2.1,0-2.9S74.1,38.1,73.3,38.9L73.3,38.9z"/>
</svg>
