<?xml version="1.0" encoding="utf-8"?>
<!-- Generator: Adobe Illustrator 24.1.0, SVG Export Plug-In . SVG Version: 6.00 Build 0)  -->
<svg version="1.1" id="Layer_1" xmlns="http://www.w3.org/2000/svg" xmlns:xlink="http://www.w3.org/1999/xlink" x="0px" y="0px"
	 viewBox="0 0 138.7 113.4" style="enable-background:new 0 0 138.7 113.4;" xml:space="preserve">
<style type="text/css">
	.st0{fill:#D71920;}
</style>
<g>
	<path class="st0" d="M16.4,10.2c-3.7,0-6.7,3-6.7,6.7v66.9c0,3.7,3,6.7,6.7,6.7h42.8v13.4h-5.4c-0.7,0-1.3,0.6-1.3,1.3
		c0,0.7,0.6,1.3,1.3,1.3H86c0.7,0,1.3-0.6,1.3-1.3c0-0.7-0.6-1.3-1.3-1.3h-5.4V90.5h42.8c3.7,0,6.7-3,6.7-6.7V16.9
		c0-3.7-3-6.7-6.7-6.7H16.4z M16.4,12.9h107.1c2.2,0,4,1.8,4,4v54.9H12.4V16.9C12.4,14.7,14.1,12.9,16.4,12.9z M12.4,74.4h115.1v9.4
		c0,2.2-1.8,4-4,4H16.4c-2.2,0-4-1.8-4-4V74.4z M69.9,78.5c-1.5,0-2.7,1.2-2.7,2.7s1.2,2.7,2.7,2.7s2.7-1.2,2.7-2.7
		S71.4,78.5,69.9,78.5z M61.9,90.5H78v13.4H61.9V90.5z"/>
	<path class="st0" d="M86,107H53.8c-0.9,0-1.8-0.8-1.8-1.8c0-0.9,0.8-1.8,1.8-1.8h5V91H16.4c-3.9,0-7.1-3.2-7.1-7.2V16.9
		c0-3.9,3.2-7.2,7.1-7.2h107c3.9,0,7.1,3.2,7.1,7.2v66.9c0,3.9-3.2,7.2-7.1,7.2H81v12.5h5c0.9,0,1.8,0.8,1.8,1.8
		C87.8,106.1,86.9,107,86,107z M53.8,104.3c-0.5,0-0.8,0.4-0.8,0.9s0.4,0.8,0.8,0.8H86c0.5,0,0.8-0.4,0.8-0.8s-0.4-0.9-0.8-0.9h-5.9
		V90h43.3c3.4,0,6.2-2.8,6.2-6.2V16.9c0-3.4-2.8-6.2-6.2-6.2h-107c-3.4,0-6.2,2.8-6.2,6.2v66.9c0,3.4,2.8,6.2,6.2,6.2h43.3v14.3
		H53.8z M78.5,104.3h-17V90h17V104.3z M62.4,103.4h15.2V91H62.4V103.4z M123.5,88.3H16.4c-2.5,0-4.5-2-4.5-4.5v-9.9h116v9.9
		C128,86.3,126,88.3,123.5,88.3z M12.9,74.8v9c0,2,1.6,3.5,3.5,3.5h107.1c2,0,3.5-1.6,3.5-3.5v-9H12.9z M69.9,84.3
		c-1.7,0-3.1-1.4-3.1-3.1c0-1.7,1.4-3.2,3.1-3.2s3.1,1.4,3.1,3.2C73,82.9,71.6,84.3,69.9,84.3z M69.9,79c-1.3,0-2.2,1-2.2,2.2
		s1,2.2,2.2,2.2c1.3,0,2.2-1,2.2-2.2S71.2,79,69.9,79z M128,72.3h-116V16.9c0-2.5,2-4.5,4.5-4.5h107.1c2.5,0,4.5,2,4.5,4.5V72.3z
		 M12.9,71.3H127V16.9c0-2-1.6-3.5-3.5-3.5H16.4c-2,0-3.5,1.6-3.5,3.5V71.3z"/>
</g>
<g>
	<g>
		<g>
			<g>
				<path class="st0" d="M37.7,60.3c-0.2,0-0.4-0.1-0.5-0.2c-0.3-0.3-0.2-0.7,0-0.9l22.3-21.3c0.3-0.3,0.7-0.2,0.9,0l14,14.6
					l24.3-23.4c0.3-0.3,0.7-0.2,0.9,0c0.3,0.3,0.2,0.7,0,0.9L75,53.9c-0.1,0.1-0.3,0.2-0.5,0.2S74.2,54,74,53.9L60,39.3L38.2,60.1
					C38,60.3,37.9,60.3,37.7,60.3z"/>
				<path class="st0" d="M37.7,61.3c-0.4,0-0.9-0.2-1.2-0.5c-0.3-0.3-0.5-0.7-0.5-1.1c0-0.4,0.2-0.9,0.5-1.2l22.3-21.3
					c0.3-0.3,0.7-0.5,1.1-0.5c0.4,0,0.9,0.2,1.2,0.5l13.3,13.9L98,28.4c0.3-0.3,0.7-0.5,1.1-0.5c0,0,0,0,0,0c0.4,0,0.9,0.2,1.2,0.5
					c0.3,0.3,0.5,0.7,0.5,1.1c0,0.4-0.2,0.9-0.5,1.2L75.7,54.6c-0.3,0.3-0.8,0.5-1.2,0.5c-0.4,0-0.7-0.2-0.9-0.3l-0.2-0.1L60,40.7
					L38.9,60.8C38.5,61.3,38,61.3,37.7,61.3z M99.4,29.8L99.4,29.8C99.4,29.8,99.4,29.8,99.4,29.8z"/>
			</g>
		</g>
	</g>
	<g>
		<g>
			<g>
				<path class="st0" d="M99.3,47.3c-0.4,0-0.7-0.3-0.7-0.7V30.2H82.2c-0.4,0-0.7-0.3-0.7-0.7s0.3-0.7,0.7-0.7h17.1
					c0.4,0,0.7,0.3,0.7,0.7v17.1C99.9,47,99.6,47.3,99.3,47.3z"/>
				<path class="st0" d="M99.3,48.3c-1,0-1.7-0.7-1.7-1.7V31.2H82.2c-1,0-1.7-0.7-1.7-1.7c0-1,0.7-1.7,1.7-1.7h17.1
					c1,0,1.7,0.7,1.7,1.7l0,17.3C100.8,47.7,100.1,48.3,99.3,48.3z"/>
			</g>
		</g>
	</g>
</g>
</svg>
